PathFileType	4	(X/Y/Z)	38_2_22_p0_0-383.trc
DataRate	CameraRate	NumFrames	NumMarkers	Units	OrigDataRate	OrigDataStartFrame	OrigNumFrames
60.0	60.0	6	27	m	60.0	240	384
Frame#	Time	RHip			RKnee			RAnkle			RBigToe			RSmallToe			RHeel			LHip			LKnee			LAnkle			LBigToe			LSmallToe			LHeel			Neck			Head			Nose			RShoulder			RElbow			RWrist			RThumb			RIndex			RPinky			LShoulder			LElbow			LWrist			LThumb			LIndex			LPinky			
		X1	Y1	Z1	X2	Y2	Z2	X3	Y3	Z3	X4	Y4	Z4	X5	Y5	Z5	X6	Y6	Z6	X7	Y7	Z7	X8	Y8	Z8	X9	Y9	Z9	X10	Y10	Z10	X11	Y11	Z11	X12	Y12	Z12	X13	Y13	Z13	X14	Y14	Z14	X15	Y15	Z15	X16	Y16	Z16	X17	Y17	Z17	X18	Y18	Z18	X19	Y19	Z19	X20	Y20	Z20	X21	Y21	Z21	X22	Y22	Z22	X23	Y23	Z23	X24	Y24	Z24	X25	Y25	Z25	X26	Y26	Z26	X27	Y27	Z27	
240	4.0	0.3993182703676067	0.6944095320827606	0.5287177166465331	0.3975784515025356	0.9083141691464868	0.9620179432909296	0.3626450145581848	1.0599281379133774	1.3697692443650444	0.316995849361743	0.8767199885776156	1.4337378148684508	0.378452192328111	0.9053751583899008	1.4386560577788827	0.34752735497661025	1.1490075413800132	1.4118867072649657	0.18761645628016455	0.7328840133692875	0.532675923859544	0.18296592495095607	0.9264696257129079	0.9525400155886259	0.18748586647791862	1.0549378154075022	1.3317075074919404	0.171651426190097	0.8993347061808842	1.417483546374516	0.12118438071633808	0.9354851945678074	1.4076751890650823	0.20327558164926332	1.1433930518193758	1.4054761139041312	0.2773830061150962	0.5869168419559396	-0.10519875956356438	0.280781558458791	0.48108305099814846	-0.34607912054470297	0.2800388807826179	0.4735424105601585	-0.20962503763679452	0.4576609296441099	0.6195455665039131	-0.025670634018400636	0.4725956694673772	0.3609054560308489	0.1772390780854132	0.3480800145602263	0.3346904554854137	-0.04058597087311079	0.2690276754103166	0.34212464978847684	-0.13352340741872082	0.2569829188484999	0.3118254198378395	-0.1561030989559247	0.2751382047172495	0.25794648923265884	-0.10325391310922577	0.12348653531767606	0.6445427798349556	-0.002854561888683619	0.08069571490353349	0.7549781239821766	0.27078693876824117	0.0654466195898433	0.8074796159547314	0.5368108899687207	0.10506078981819172	0.7566508596238842	0.6492829591866336	0.0677916157258396	0.8098461773794828	0.6942829929001897	0.0463787443734012	0.8615590278917896	0.6717550895505323
241	4.016666666666667	0.39933649756730616	0.694648039644737	0.5287818356010168	0.4012254081680488	0.8930433824164513	0.9598588314343485	0.35692589716944156	1.0445129186272852	1.3654504321721581	0.31699591822785583	0.8768305024541989	1.4338054604762727	0.3802180750698828	0.8873536686527316	1.4331831815128167	0.34750465908314543	1.1489280853627053	1.4118135381895378	0.18465042642576132	0.7481449018044439	0.5331358640906132	0.18210508140922194	0.9282821908643623	0.9564754188040782	0.18742791860601893	1.0549167709374383	1.3317199661797332	0.1715212802847222	0.8991812588095336	1.4175460544055907	0.12122038185647345	0.935478061535978	1.4077333741912892	0.2030461372877186	1.1436512846128513	1.405834711943181	0.2774109102364002	0.5869218695676686	-0.1052766686516808	0.2808376102136393	0.4811783275781309	-0.34613798716480887	0.28005229958619976	0.4736123434071394	-0.2095501756718411	0.4635034782657578	0.6329405241361088	-0.024261839916261813	0.47273759962047496	0.36098200591204543	0.1771365100707047	0.34812245008007187	0.33490265821488624	-0.04077840851956302	0.26854507600234717	0.34181173413919047	-0.13364056228950552	0.26313579227548173	0.3145587730626155	-0.1543802249926174	0.2750612709184367	0.25797509920735134	-0.10544353054324695	0.12349834272278448	0.6445215901033338	-0.0027339907503062884	0.08051651967454058	0.7544809457006147	0.2708016922432244	0.0654636965328293	0.8077045351557226	0.5368163811689141	0.10496392961564423	0.7568072917049908	0.6493830474366757	0.06784568017595309	0.8093722169246161	0.69428756669742	0.05088644145111762	0.8629348395976496	0.6719759595150397
242	4.033333333333333	0.3997995148631589	0.6937804789693637	0.5248740000213444	0.3976184375530497	0.9085917754348929	0.9623110973569715	0.3570452186236801	1.0446912137392672	1.3655227378540835	0.31674545640800983	0.8766147281675831	1.4338449873009471	0.3782091246236785	0.9053806583380554	1.438791182978284	0.346361648110757	1.1456274278286183	1.4070378378654655	0.18467070358951107	0.7479823137564364	0.5330516020682737	0.1818750667946057	0.9233342060003336	0.9474754967688775	0.187544494787416	1.0548445276838365	1.331635323875973	0.17147850965566505	0.8993299527038532	1.4176836779430835	0.12209271423036379	0.9391450446436107	1.4131549324821238	0.20301931882260535	1.1429698898686915	1.405321214257084	0.2774053249849603	0.5871001683286737	-0.10523074896796848	0.2808305448216467	0.48124324779586414	-0.3461228474571662	0.2800546865243529	0.4738161824671739	-0.2094943654111086	0.4630101749067932	0.6309812890828057	-0.027543175013003532	0.47217592819033655	0.3595856784196718	0.17360340893688858	0.34818992119281594	0.3350390900625997	-0.04079983364628338	0.2705959474510876	0.3432245488414977	-0.13388795813954996	0.2627342158207913	0.31499351712897417	-0.15233763454468272	0.2750345497925074	0.2580444746578539	-0.10551219722167693	0.12351039935964467	0.6445879629120633	-0.0027986098848853023	0.08044266922816579	0.7545356733600933	0.27075408329203543	0.06618502387539828	0.810085250413732	0.5411315465295743	0.10539635919874564	0.7577488926319869	0.6497722840184776	0.0718677315324805	0.8096497722665369	0.6952377870390255	0.04703590194760271	0.8640195665102822	0.6763615510709942
243	4.05	0.39981759545258005	0.6938030543903406	0.5248618490798651	0.4013773718239783	0.8929067928802131	0.9596497623797896	0.3570295271210123	1.0446671766280469	1.3655121078195127	0.31674683398993686	0.8766559620465185	1.4338629812095438	0.3801538896376242	0.887120077072594	1.433165037510419	0.347501850685098	1.1491151382610594	1.4119760839554856	0.18465138837223669	0.7481956996464252	0.5330512365299359	0.18300036866287836	0.9271999933903602	0.952625947710998	0.18750571123620002	1.0553076119207316	1.3318938813814694	0.17153094751346262	0.8990267746165109	1.4175755402333705	0.12198413277194232	0.9390348187862423	1.4131010092569305	0.20355363004987773	1.1450016751512306	1.4093599094896863	0.27745624791386464	0.5870353936911376	-0.10537106742829677	0.28086644731755017	0.48142821502293937	-0.34612796074258123	0.2801440337948043	0.47399492505996177	-0.20965123392558027	0.4629698513968363	0.6308376678203409	-0.027583106630793164	0.47219359020631174	0.3596061775822824	0.17031854837309196	0.3478953515981389	0.3334972020399528	-0.043504203943331064	0.2676248782550804	0.34066943879188016	-0.13381198347627254	0.26288703271026304	0.3145829913131194	-0.15312010716598393	0.2773591424111207	0.25868966426816636	-0.10575008380803677	0.12346341109825805	0.6445028959403776	-0.0027628736018990158	0.08025962468477099	0.7539623607361579	0.2708499625172701	0.06630705814580047	0.809720723548373	0.5412252157272892	0.10514966047530709	0.7612040605074536	0.6571979477044849	0.07170724477493723	0.7938514002661727	0.6978947570851276	0.043605447225408385	0.8544546495230524	0.6803076085861134
244	4.066666666666666	0.3998505082822359	0.6938101665533027	0.5248735822382873	0.40034262126447673	0.8901289314372266	0.9551135781194316	0.36266915141858685	1.0599684331497574	1.36972835118363	0.32204615651811064	0.8899224796422169	1.4380943435596838	0.3805027472250644	0.8877361772921321	1.433286182173509	0.34743935453221586	1.1490451183262258	1.4118975603464934	0.18771398789201854	0.7330654245195447	0.5326456927836258	0.18772115075161436	0.9277291214588747	0.9527337154912764	0.18750398035959853	1.0554182128463225	1.3318915275830694	0.17163626235352117	0.899460885126614	1.4176059867072779	0.12114447529478259	0.9358237230085121	1.4079031408694298	0.20277723163402395	1.141961516427631	1.404799527171908	0.27741954363857274	0.5870043419810047	-0.10527121819796086	0.2809571347603109	0.4815093301659401	-0.3461131674997651	0.2799846919963432	0.4722943631564243	-0.21243464717032332	0.4630003611983101	0.6308896027389265	-0.02761256800094261	0.47232975588853565	0.3598318353488205	0.17012310320363294	0.3483019983461638	0.335092042585148	-0.0409565943707139	0.27132351086460094	0.3438742203539568	-0.13418388193848124	0.2570989375604945	0.3116366186321536	-0.16202667512847962	0.27699007590106833	0.28968649197082114	-0.1160038801286332	0.12348521934690569	0.6444406809510103	-0.0027870595288456384	0.08022138909838405	0.7541236621491664	0.27075831529396893	0.06642805064191724	0.8095647998665911	0.5412038435920149	0.10478791838849723	0.757176382015182	0.649957052368274	0.07171514777393857	0.7937721362262417	0.6976285145641589	0.04692467504334431	0.8639440884616438	0.676586905469093
245	4.083333333333333	0.3997032471629668	0.6939832688100608	0.5210047358982527	0.4003623769719101	0.890194844427992	0.9551496562724855	0.36269629496979955	1.0599912987124331	1.3697649762148039	0.3220609332046366	0.8900037338154019	1.4381180640176257	0.3804624560224424	0.8878856591782126	1.433378807014032	0.3475376963125407	1.1491443408152968	1.4119302369538802	0.18474469351275133	0.7478248121695309	0.5329608688989166	0.18759649862026556	0.9274588052714924	0.9527635189263512	0.1874847199747012	1.055565544415743	1.3321108069099807	0.17158888915282142	0.8993765844416585	1.41772740819935	0.12200870916115918	0.9392217301083617	1.4132154508848542	0.2037107939004969	1.1443558381576575	1.4087731594775261	0.27745046462801964	0.5870845954569027	-0.10524475774317207	0.28092033466205935	0.48134417691237324	-0.3461036231713879	0.28034348601005765	0.4740767412351279	-0.20951997822323112	0.46298366103904764	0.6308825693133884	-0.0275708770955118	0.47180767288415976	0.35792390356771375	0.16007006038809238	0.3480022572793985	0.3338009948315519	-0.043648822078733315	0.2711426134095196	0.34208301650169287	-0.13713745423469695	0.25729778657231983	0.3115558962283713	-0.16335386908071903	0.2770545848692671	0.290354405589633	-0.11637307083744496	0.1234873789132288	0.6444375223740448	-0.0028235002923320336	0.0806922995251233	0.7541150975955548	0.2671828910169921	0.06628857921269429	0.8097075634369676	0.5411339271143452	0.10404031542631574	0.7570179275547941	0.65327438887559	0.06788303230475295	0.8085195922688432	0.6989758520301683	0.04689123427215497	0.8639161316587541	0.6764642338483801
